<svg version="1.2" baseProfile="tiny-ps" xmlns="http://www.w3.org/2000/svg" viewBox="0 0 448 512" width="24" height="27">
	<title>instagram-brands-svg</title>
	<style>
		tspan { white-space:pre }
		.s0 { fill: #ffffff } 
	</style>
	<path id="Layer" fill-rule="evenodd" class="s0" d="m446.6 163.5c2.1 37 2.1 147.8 0 184.8c-1.8 35.9-10 67.7-36.2 93.9c-26.2 26.3-58 34.5-93.9 36.2c-37 2.1-147.9 2.1-184.9 0c-35.9-1.8-67.6-10-93.9-36.2c-26.3-26.2-34.5-58-36.2-93.9c-2.1-37-2.1-147.9 0-184.9c1.8-35.9 9.9-67.7 36.2-93.9c26.3-26.2 58.1-34.4 93.9-36.1c37-2.1 147.9-2.1 184.9 0c35.9 1.8 67.7 10 93.9 36.2c26.3 26.2 34.5 58 36.2 93.9zm-38.8 92.4c0-32.6 2.7-102.6-9-132.1c-7.9-19.7-23-34.8-42.6-42.6c-29.4-11.6-99.5-9-132.1-9c-32.6 0-102.6-2.7-132.1 9c-19.7 7.9-34.8 23-42.6 42.6c-11.6 29.4-9 99.5-9 132.1c0 32.6-2.7 102.6 9 132.1c7.9 19.7 23 34.8 42.6 42.6c29.4 11.6 99.5 9 132.1 9c32.6 0 102.6 2.7 132.1-9c19.7-7.9 34.8-23 42.6-42.6c11.7-29.4 9-99.5 9-132.1zm-37.3-119.6c0 14.9-12 26.8-26.8 26.8c-14.9 0-26.8-12-26.8-26.8c0-14.8 12-26.8 26.8-26.8c14.8 0 26.8 12 26.8 26.8zm-31.5 119.6c0 63.6-51.3 114.9-114.9 114.9c-63.6 0-114.9-51.3-114.9-114.9c0-63.6 51.3-114.9 114.9-114.9c63.6 0 114.9 51.3 114.9 114.9zm-114.9 74.7c41.1 0 74.7-33.5 74.7-74.7c0-41.2-33.5-74.7-74.7-74.7c-41.2 0-74.7 33.5-74.7 74.7c0 41.2 33.6 74.7 74.7 74.7z" />
</svg>