<svg version="1.2" baseProfile="tiny-ps" xmlns="http://www.w3.org/2000/svg" viewBox="0 0 448 512" width="24" height="27">
	<title>linkedin-brands-svg</title>
	<style>
		tspan { white-space:pre }
		.s0 { fill: #ffffff } 
	</style>
	<path id="Layer" fill-rule="evenodd" class="s0" d="m448 64.3v383.4c0 17.8-14.4 32.3-32 32.3h-384.1c-17.6 0-31.9-14.5-31.9-32.3v-383.4c0-17.8 14.3-32.3 31.9-32.3h384.1c17.6 0 32 14.5 32 32.3zm-312.5 351.7v-213.8h-66.5v213.8h66.5zm-33.3-243c21.3 0 38.5-17.2 38.5-38.5c0-21.2-17.3-38.5-38.5-38.5c-21.3 0-38.5 17.3-38.5 38.5c0 21.2 17.2 38.5 38.5 38.5zm282.1 243v-117.2c0-57.6-12.5-101.9-79.7-101.9c-32.3 0-54 17.7-62.9 34.5h-0.9v-29.2h-63.7v213.8h66.4v-105.8c0-27.9 5.3-54.9 39.9-54.9c34 0 34.5 31.9 34.5 56.7v104h66.4z" />
</svg>