<svg version="1.2" baseProfile="tiny-ps" xmlns="http://www.w3.org/2000/svg" viewBox="0 0 512 512" width="30" height="30">
	<title>copyright-solid-svg</title>
	<style>
		tspan { white-space:pre }
		.s0 { fill: #ffffff } 
	</style>
	<path id="Layer" fill-rule="evenodd" class="s0" d="m504 256c0 136.97-111.03 248-248 248c-136.97 0-248-111.03-248-248c0-136.97 111.03-248 248-248c136.97 0 248 111.03 248 248zm-130.87 98.75c0.87-1.02 1.56-2.18 2.05-3.43c0.49-1.25 0.76-2.57 0.81-3.91c0.05-1.34-0.13-2.68-0.52-3.96c-0.39-1.28-1-2.49-1.79-3.57l-24.55-33.57c-4.45-6.09-13.38-6.62-18.51-1.05c-0.26 0.29-26.85 28.63-65.54 28.63c-48.76 0-74.28-40.09-74.28-79.69c0-42.51 27.8-76.08 73.92-76.08c35.35 0 61.65 23.67 61.88 23.88c5.46 5.06 14.19 3.97 18.23-2.29l22.38-34.66c0.72-1.11 1.24-2.33 1.56-3.61c0.32-1.28 0.43-2.6 0.31-3.92c-0.11-1.31-0.44-2.6-0.97-3.81c-0.53-1.21-1.26-2.32-2.15-3.29c-1.46-1.59-36.47-38.9-103.42-38.9c-81.76 0-143.76 62.1-143.76 143.4c0 82.31 59.79 145.57 144.48 145.57c70.07 0 108.26-43.86 109.85-45.73z" />
</svg>