<svg version="1.2" baseProfile="tiny-ps" xmlns="http://www.w3.org/2000/svg" viewBox="0 0 512 512" width="30" height="30">
	<title>search-solid-svg</title>
	<style>
		tspan { white-space:pre }
		.s0 { fill: #ffffff } 
	</style>
	<path id="Layer" fill-rule="evenodd" class="s0" d="m504.9 476.7l-28.3 28.3c-9.3 9.4-24.5 9.4-33.9 0l-99.7-99.7c-4.5-4.5-7-10.6-7-17v-16.3c-35.3 27.6-79.7 44-128 44c-114.9 0-208-93.1-208-208c0-114.9 93.1-208 208-208c114.9 0 208 93.1 208 208c0 48.3-16.4 92.7-44 128h16.3c6.4 0 12.5 2.5 17 7l99.7 99.7c9.3 9.4 9.3 24.6-0.1 34zm-168.9-268.7c0-70.8-57.3-128-128-128c-70.8 0-128 57.3-128 128c0 70.8 57.3 128 128 128c70.8 0 128-57.3 128-128z" />
</svg>